<?xml version="1.0" encoding="UTF-8"?>
<svg viewBox="0 0 128 128" xmlns="http://www.w3.org/2000/svg">
 <path d="m84,13.65625-65.65625,27.875-.03125,7.65625 .875.96875-.03125,4.40625-.875.46875v3.78125l1.625,2.5-.09375,34.25-1.34375,1.40625-1.8125,9.90625 19.375,15.53125 23.15625-9.53125-2.75-8.34375-.34375-31c1.44075-8.92221 8.36852-12.90206 15.3125-16.65625 2.68996-1.03646 5.46085-1.74428 8.1875-1.9375l.34375,29-.90625,4.8125 15.1272,8.52399 15.4353-6.18024-1.40625-9.125-1.6875-2.5 .125-38.34375 1.5625-3.1875-.34375-3.9375-.6875-.09375-.09375-4.75 .84375-1 .3125-7.90625-24.21875-6.59375zm-.15625.59375 23.90625,6.40625-70.15625,30.15625-18.71875-8.9375 64.96875-27.625zm.375,1.34375-62.71875,26.53125 16.28125,7.1875 66.25-28.3125-19.8125-5.40625zm-.125.28125 18.75,5.21875-64.96875,27.625-15.5-6.5 61.71875-26.34375zm23.375,5.25-.09375,6.90625-31.9375,13.6875c-.67438-.85491-1.63029-1.34375-2.71875-1.34375-2.17218,0-4.3006,2.01861-5.1875,4.78125l-29.71875,12.59375-.09375-6.34375 69.75-30.28125zm-.90625,7.75 .09375,5.3125-30.34375,13.1875c.05886-.25288.11914-.48855.15625-.75 .23816-1.67804-.02501-3.19566-.65625-4.3125l30.75-13.4375zm.6875,5.75 .40625,3.25-1.5,3.125-.03125,38.5 1.78125,2.875-.09375,2.78125-11.8125,5.03125-.59375-31.375c-5.09717-7.23361-12.10403-6.20374-20.125-5.6875-9.56597,1.72317-18.75403,7.72673-21.4375,21.0625l-.4375,31.375-16.34375,6.125 .21875-3.28125-.0625-2.90625 .1875-34.90625 .09375-2.84375 .40625-3.25 30.25-13.125c.68462.94762 1.63359,1.53125 2.78125,1.53125 2.19077,0 4.3809-2.10094 5.25-4.90625l31.0625-13.375zm-34.4375,6.34375c.24552,0 .49092.05948.71875.125l-.96875,2.9375c-.18063-.10476-.35932-.17805-.53125-.15625l.03125-2.78125c.25615-.07295.50304-.125.75-.125zm-1.15625.25-.1875,2.9375c-.19916.13307-.46253.31709-.71875.53125l-1.3125-1.75c.66391-.77341 1.44098-1.39285 2.21875-1.71875zm2.40625.0625c.67929.36743 1.22531,1.05369 1.59375,1.875l-2.40625,1.5c-.12943-.15581-.23061-.30134-.34375-.40625l1.15625-2.96875zm-54.9375,1.40625 17.9375,8.5-.03125,6.40625-18.03125-8.53125 .125-6.375zm50,.625 1.3125,1.71875c-.17787.27682-.31198.52731-.40625.75l-1.90625-.78125c.25828-.59749.60458-1.16848 1-1.6875zm6.71875.3125c.22263.66172.31911,1.38957.28125,2.15625h-2.5c-.03788-.26734-.08659-.54157-.15625-.875l2.375-1.28125zm-4.125.8125c.4011-.04695.7418.25424 1.28125.5625 .40895,1.2264-.01435,2.24819-.5625,3.34375-.78206.74439-1.01352.33811-1.8125-.25-.53094-1.15109-.19098-2.04601.25-3.125 .34141-.34588.60309-.50308.84375-.53125zm-3.6875.90625 1.84375.90625c-.06351.3212-.04379.64382.03125,1l-2.28125.78125c-.04772-.46466-.03556-.93555.03125-1.40625 .0614-.43258.21443-.85403.375-1.28125zm-.65625.4375c-.06695.27586-.14682.55709-.1875.84375-.23416,1.64983.0435,3.13153.65625,4.25l-29.96875,12.84375-.0625-5.1875 29.5625-12.75zm8.71875.375c-.00692.06242.00889.12489 0,.1875-.11323.7978-.4143,1.62285-.8125,2.40625l-1.75-1.375c.12853-.37141.17565-.73722.15625-1.125l2.40625-.09375zm-6.15625,1.34375c.06262.24494.15242.49707.25.8125 .0892.12357.1707.20983.25.3125l-2.15625,1.53125c-.2712-.52768-.48801-1.09734-.59375-1.71875l2.25-.9375zm3.4375.28125 1.65625,1.34375 .0625-.03125c-.36815.65431-.79457,1.27492-1.28125,1.78125l-1.09375-2.15625 .1875-.15625c.19639-.29021.35173-.53974.46875-.78125zm-2.65625,1.1875c.15452.17099.30403.29862.4375.375l-.46875,2.9375c-.91395-.16783-1.71742-.88214-2.28125-1.84375l2.3125-1.46875zm1.6875,0 1.1875,2.125c-.68177.65035-1.42914,1.08627-2.15625,1.1875l.09375-2.84375c.24132-.01236.53746-.19741.875-.46875zm28.8125.71875c-2.30417.5359-4.0207,3.24837-4,5.96875l.1875,22.90625c.02069,2.72038 1.75833,4.62965 4.0625,4.09375s4.0832-3.24837 4.0625-5.96875l-.1875-22.90625c-.03908-2.88338-1.65942-3.92683-4.125-4.09375zm-81.6875.15625 17.5,8.3125-.03125,5.46875-17.40625-8.5625-.0625-5.21875zm82,.15625c2.08861-.02034 3.85051,1.94691 3.5,4.1875l.125,22.65625c.01734,2.27884-2.03455,5.27181-3.6875,5.65625s-3.57641-1.62741-3.59375-3.90625l-.375-22.78125c-.01734-2.27885 1.97205-5.39681 3.625-5.78125 .14176-.01953.26701-.02989.40625-.03125zm-20.78125,3.0625c5.58796-.12783 11.67455.97372 14.28125,6.03125l.6875,31.21875-1.21875.5-.65625-30.90625c-6.52999-7.3078-13.55339-6.11468-22.21875-3.8125-8.10592,3.55605-15.6572,10.41971-16.15625,17.375l.34375,31.1875-2.15625.8125 .125-.15625 .34375-31.1875c2.60235-12.9326 12.07875-18.95605 21.34375-20.625 1.60107-.21438 3.41859-.39489 5.28125-.4375zm21.34375.40625c-1.65988,0-2.51208,1.1927-3.0625,3.28125s.15261,3.03125 1.8125,3.03125 2.54333-.9427 3.09375-3.03125-.18386-3.28125-1.84375-3.28125zm-.5.21875c.15677.00098.30269.02405.46875.09375 1.56896,0 2.24119,1.43333 1.75,3.0625-.48526,1.6095-1.912,2.88759-3.15625,2.8125-1.16703-.07043-1.56586-1.3898-1.28125-2.90625 .28428-1.51469 1.12137-3.06936 2.21875-3.0625zm-20.15625,1.1875c.22198,10.23326.29944,19.79614.5,30.03125l-1.65625-.8125-.21875-29.1875c.45852-.02251.92067-.03952 1.375-.03125zm.28125,0c3.5874.11775 7.01352,1.27515 9.9375,3.84375 .11796,10.37503.28305,20.74968.375,31.125l-9.8125-4.78125c-.19204-10.17764-.2793-20.01112-.5-30.1875zm-62.8125.6875 18.09375,8.78125-.03125,3.21875 .15625,3.03125-.1875,35-.21875,2.90625-.15625,2.84375-17.59375-11.96875-.28125-2.28125 1.53125-1.46875-.03125-34.5-1.34375-2.375 .0625-3.1875zm73,3.375c.40446.37053.80394.75875 1.1875,1.1875l.59375,30.53125-1.28125-.625c-.03636-10.32802.51023-20.80985-.5-31.09375zm-70.34375,3.25c-1.12214,3.01963-.9133,7.16724.46875,10.15625 .07879.11956.16771.22726.25.34375 .08674.2138.21598.38973.375.53125 1.54646,1.98342 3.59601,3.52232 5.6875,4.90625 1.94544,1.25702 4.53191,2.29082 6.84375,2.15625l.09375-.25c.06383-.08278.09889-.17888.09375-.3125 .92703-2.97309.61374-6.83716-.71875-9.65625-1.58692-2.42047-3.92404-4.17668-6.3125-5.75-1.94786-1.26368-4.46169-2.26002-6.78125-2.125zm80.75.03125c-.18385-.00751-.41397.0155-.6875.0625-1.0941.18798-1.375.52696-1.375,1.625l.03125,5.9375c0,1.09803.40589,1.37548 1.5,1.1875s1.125-.62071 1.125-1.71875l.125-5.96875c0-.82353-.1672-1.10246-.71875-1.125zm-.375.09375c.63083-.06373 1.12608.46865.96875,1.09375l-.1875,5.96875c.16354.80717-.30734,1.0956-1,1.5-.64622.37729-1.28841-.25903-1.25-1.0625l-.09375-5.96875c-.22017-.57129.23111-1.44649 1.28125-1.46875 .09457-.03423.19113-.0534.28125-.0625zm-79.46875.125 5.78125,7.84375 5.1875-1.125c.44531.49433.84086.99805 1.1875,1.46875 .04505.10827.08228.23152.125.34375l-5.84375,1.125 6.125,7.28125c-.09397.19811-.19579.38766-.3125.5625-.41036.03743-.85029.00701-1.28125-.0625l-6.46875-7.46875-4.0625.6875c-.21649-.2566-.4345-.51886-.625-.78125-.10185-.23657-.21603-.48576-.3125-.75 .00931-.06984.02318-.1237.0625-.1875l3.71875-.78125-4.1875-7.15625c.12644-.33067.25606-.66722.4375-.96875 .15548-.01613.31244-.02601.46875-.03125zm.1875,0h.125c1.86277.13683 3.86323,1.32267 5.375,2.21875 1.69209,1.04493 3.6599,2.75738 5.1875,4.4375l-5.0625,1.03125-5.625-7.6875zm-1.1875,1.1875 4.09375,6.9375-3.6875.6875c-.76065-2.23261-1.23682-5.23195-.40625-7.625zm64.96875.71875c-.43283-.01486-.91205.02474-1.4375.125-2.22438,3.21639.40537,6.08563 3.75,5.5625 1.48247-2.84083.71729-5.58345-2.3125-5.6875zm.4375.15625c2.13386.09193 3.3912,3.2888 1.59375,5.03125-2.5327,1.66164-5.85474-2.96165-3.1875-4.53125 .55984-.36535 1.10132-.52121 1.59375-.5zm-1.125,1.34375c-.85269,1.77047.22161,3.35046 2.0625,3.0625 .92244-1.77528-.2373-2.93391-2.0625-3.0625zm.15625.28125c1.42986.09685 2.52127,1.14094 1.75,2.5-1.84014.24556-2.24021-1.11996-1.75-2.5zm-37.9375,2.96875c-.66223.00015-1.39761.12057-2.15625.40625-3.03455,1.14271-5.58341,4.29592-5.625,7.125l-.34375,22.84375c-.04159,2.82908 2.46545,4.0802 5.5,2.9375s5.61466-4.29592 5.65625-7.125l.3125-22.84375c.03119-2.12181-1.35705-3.34421-3.34375-3.34375zm-.65625.5625c1.99766-.0211 3.61951,1.46622 3.59375,3.21875l-.4375,22.78125c-.03171,2.15697-2.52141,5.36332-5.125,6.34375s-5.09421-.28053-5.0625-2.4375l.34375-23.03125c.03171-2.15696 2.64641-5.61333 5.25-6.59375 .48817-.18383.9765-.27638 1.4375-.28125zm-12.5,1.5c.90488,2.49594 1.23138,5.81352.3125,8l-5.8125-6.9375 5.5-1.0625zm-8,1.34375 6.28125,7.3125c-1.6519-.35558-3.35132-1.32027-4.65625-2.09375-1.87531-1.16227-3.90237-2.73324-5.40625-4.46875l3.78125-.75zm20.125.28125c-1.65989,0-3.44958,1.6927-4,3.78125s.34011,3.8125 2,3.8125 3.48083-1.72395 4.03125-3.8125-.37136-3.78125-2.03125-3.78125zm55.15625.25c-1.65988,0-2.69958.84895-3.25,2.9375s.30886,3 1.96875,3 2.44958-.8802 3-2.96875-.05886-2.96875-1.71875-2.96875zm-55.34375.0625c1.69688-.15078 2.25409,1.77726 2,3.46875-.24062,1.60177-2.45978,3.71678-3.6875,3.6875-1.65945-.03957-2.40361-1.97446-1.96875-3.4375s2.07112-3.76035 3.65625-3.71875zm54.8125.15625c.16872-.00664.32317.02414.5.0625 1.84903-.08498 1.55636,1.02808 1.4375,2.65625-.12769,1.74903-1.29928,2.36772-2.84375,2.6875-1.34399.27827-1.53653-1.1101-1.375-2.6875 .15884-1.55116 1.10023-2.67226 2.28125-2.71875zm-15.125,2.6875c-.43283-.01486-.91205.02474-1.4375.125-2.22438,3.21639.40537,6.08563 3.75,5.5625 1.48247-2.84083.71729-5.58345-2.3125-5.6875zm.4375.15625c2.13386.09193 3.3912,3.2888 1.59375,5.03125-2.5327,1.66165-5.85474-2.96165-3.1875-4.53125 .55984-.36535 1.10132-.52121 1.59375-.5zm-1.125,1.34375c-.85269,1.77047.22161,3.35046 2.0625,3.0625 .92244-1.77528-.2373-2.93391-2.0625-3.0625zm.15625.28125c1.42986.09685 2.52127,1.14094 1.75,2.5-1.84014.24556-2.24021-1.11996-1.75-2.5zm-59.375,1.71875c-.77538-.01905-1.15625.53915-1.15625,1.75 0,1.93736.71703,3.49625 2.6875,4.5625s3.25.56236 3.25-1.375-.99828-3.24626-2.96875-4.3125c-.73892-.39984-1.34727-.61357-1.8125-.625zm.25.5625c.4136-.04579.92693.08181 1.46875.375 1.44486.78184 2.59375,2.52587 2.59375,3.90625s-1.14889,1.87558-2.59375,1.09375-2.59375-2.52587-2.59375-3.90625c0-.86274.43566-1.39243 1.125-1.46875zm19.4375,1.375c-1.0941.18798-2,1.21446-2,2.3125v5.96875c0,1.09803.90589,1.81298 2,1.625-1.19667.1646-1.93719-1.03687-1.78125-1.59375v-5.96875c-.16964-.67596.69718-2.34878 1.78125-2.03125 1.20137-.4867 2.04986.71549 1.75,1.4375l.125,5.96875c.1489.5346-1.20811,2.09577-1.875,2.1875 1.0941-.18798 2-1.21446 2-2.3125v-5.96875c0-1.09804-.9059-1.81298-2-1.625zm-18.9375.1875c-.85269,1.77047.22161,3.35046 2.0625,3.0625 .92244-1.77528-.2373-2.93391-2.0625-3.0625zm.15625.28125c1.42986.09685 2.52127,1.14094 1.75,2.5-1.84014.24556-2.24021-1.11996-1.75-2.5zm52.84375,2.71875 13.40625,7.03125 .125,4.90625-14.40625-8.03125 .875-3.75v-.15625zm-57.28125.34375c-.76708-.00815-1.43889.28579-1.84375,1.09375 .00324.05205-.00266.10414 0,.15625l-.03125.03125 .03125.0625c.134,3.00591-.62204,6.10447.6875,8.875 .07071.1073.1451.20768.21875.3125 .10429.27855.24471.5287.46875.6875h.03125c1.54084,1.92366 3.57729,3.42629 5.625,4.78125 1.94346,1.26983 4.37755,2.35305 6.6875,2.25l.03125-.5625c.05056-.13111.03446-.2832 0-.46875l.28125-7.34375c-.78761-3.46891-4.19257-5.8296-7-7.6875-1.27309-.71368-3.49993-2.16958-5.1875-2.1875zm.15625.6875c1.67806.01467 3.76018,1.24261 5.03125,2 1.79119.96351 3.48598,2.60029 4.875,4.3125l-4.96875,1.03125-5.34375-7.3125c.13367-.01533.26641-.03247.40625-.03125zm84.75.03125 1.0625,5.125-14.34375,5.375-.09375-4.59375 13.375-5.90625zm-85.34375.03125 5.40625,7.53125 5.3125-1.03125c.43385.54965.83051,1.11923 1.1875,1.65625l-5.5625,1.1875 5.625,6.8125c-.05618.35343-.10116.70113-.1875,1-.23816.0247-.47879.01886-.71875,0l-6.9375-7.59375-3.9375.6875c-.11004-.12356-.209-.25014-.3125-.375l-.65625-1.3125 3.875-.71875-4.03125-6.8125c.01365-.21766.02322-.43859.03125-.65625 .26936-.20668.57557-.31431.90625-.375zm-.96875,1.3125 3.78125,6.40625-3.6875.6875c-.64458-2.36681-.26183-4.72694-.09375-7.09375zm25.28125,5c-1.65989,0-3.44958,1.6927-4,3.78125s.34011,3.81251 2,3.8125 3.44958-1.72395 4-3.8125-.34011-3.78125-2-3.78125zm-.59375.25c.16326-.02773.32261-.02398.46875.03125 1.72588,0 2.54707,2.06794 2,3.65625-.50071,1.4537-2.36956,3.65337-3.90625,3.59375-1.38205-.05362-2.31743-2.05933-1.6875-3.6875 .51824-1.33948 1.9822-3.39966 3.125-3.59375zm-11.71875,1.75c.06914.10577.15306.20832.21875.3125-.05393,2.06547.08689,5.06428-.21875,7.28125l-5.4375-6.53125 5.4375-1.0625zm-7.9375,1.34375 6.375,7.40625c-1.6393-.34828-3.26889-1.47744-4.625-2.28125-1.84045-1.13654-3.95224-2.68248-5.5-4.375l3.75-.75zm-7.71875,4.3125 17.59375,12.40625-.53125,9.375-18.5625-14.875 1.5-6.90625zm39.71875,12.71875-22.28125,9.25 .65625-9.21875 .0625.03125 18.75-7.25 2.8125,7.1875z" fill="#5c2700" fill-rule="evenodd"/>
</svg>
